P2
# CREATOR: GIMP PNM Filter Version 1.1
2 8
255
255
84
77
78
255
92
77
82
71
255
73
101
74
113
74
255
